<svg width="42" height="42" viewBox="0 0 42 42" fill="none" xmlns="http://www.w3.org/2000/svg">
<g opacity="0.56">
<path d="M22.3388 30.4281C22.3388 30.7832 22.1977 31.1237 21.9467 31.3748C21.6956 31.6258 21.3551 31.7669 21 31.7669C20.6449 31.7669 20.3044 31.6258 20.0533 31.3748C19.8023 31.1237 19.6612 30.7832 19.6612 30.4281L19.6706 22.3294L11.5719 22.3388C11.2168 22.3388 10.8763 22.1978 10.6252 21.9467C10.3742 21.6956 10.2331 21.3551 10.2331 21C10.2331 20.6449 10.3742 20.3044 10.6252 20.0533C10.8763 19.8023 11.2168 19.6612 11.5719 19.6612L19.6706 19.6707L19.6612 11.5719C19.6612 11.2169 19.8023 10.8763 20.0533 10.6253C20.3044 10.3742 20.6449 10.2331 21 10.2331C21.3551 10.2331 21.6956 10.3742 21.9467 10.6253C22.1977 10.8763 22.3388 11.2169 22.3388 11.5719L22.3294 19.6707L30.4281 19.6612C30.7832 19.6612 31.1237 19.8023 31.3748 20.0533C31.6258 20.3044 31.7669 20.6449 31.7669 21C31.7669 21.3551 31.6258 21.6956 31.3748 21.9467C31.1237 22.1978 30.7832 22.3388 30.4281 22.3388L22.3294 22.3294L22.3388 30.4281Z" fill="white"/>
</g>
<path d="M0 14C0 6.26802 6.26801 0 14 0H27.6228C35.3548 0 41.6229 6.26801 41.6229 14V27.6228C41.6229 35.3548 35.3548 41.6229 27.6229 41.6229H14C6.26802 41.6229 0 35.3548 0 27.6229V14Z" fill="url(#paint0_linear_158_129)"/>
<path d="M0 14C0 6.26802 6.26801 0 14 0H27.6228C35.3548 0 41.6229 6.26801 41.6229 14V27.6228C41.6229 35.3548 35.3548 41.6229 27.6229 41.6229H14C6.26802 41.6229 0 35.3548 0 27.6229V14Z" fill="url(#paint1_radial_158_129)" fill-opacity="0.2"/>
<defs>
<linearGradient id="paint0_linear_158_129" x1="-38.1411" y1="-46.2586" x2="17.5921" y2="80.4789" gradientUnits="userSpaceOnUse">
<stop offset="0.397419" stop-color="white" stop-opacity="0.2"/>
<stop offset="1" stop-color="white" stop-opacity="0"/>
</linearGradient>
<radialGradient id="paint1_radial_158_129" cx="0" cy="0" r="1" gradientUnits="userSpaceOnUse" gradientTransform="translate(21.1152 41.7256) rotate(-90) scale(24.6345)">
<stop stop-color="white"/>
<stop offset="1" stop-color="white" stop-opacity="0"/>
</radialGradient>
</defs>
</svg>
