<svg width="25" height="25" viewBox="0 0 25 25" fill="none" xmlns="http://www.w3.org/2000/svg">
<path d="M0 7C0 3.13401 3.13401 0 7 0H18C21.866 0 25 3.13401 25 7V18C25 21.866 21.866 25 18 25H7C3.13401 25 0 21.866 0 18V7Z" fill="url(#paint0_linear_158_131)"/>
<path d="M0 7C0 3.13401 3.13401 0 7 0H18C21.866 0 25 3.13401 25 7V18C25 21.866 21.866 25 18 25H7C3.13401 25 0 21.866 0 18V7Z" fill="url(#paint1_radial_158_131)" fill-opacity="0.2"/>
<path d="M17.837 7.93528L17.7189 7.81716C17.3281 7.42679 16.7982 7.20752 16.2458 7.20752C15.6934 7.20752 15.1636 7.42679 14.7727 7.81716L8.10906 14.4739C8.02018 14.5642 7.95771 14.6772 7.9284 14.8005L7.23354 17.5799C7.20046 17.6973 7.19889 17.8215 7.229 17.9397C7.25911 18.058 7.31983 18.1662 7.40506 18.2535C7.49028 18.3409 7.59701 18.4042 7.71449 18.4372C7.83198 18.4702 7.95608 18.4717 8.07432 18.4415L10.8537 17.7467C10.977 17.7173 11.09 17.6549 11.1803 17.566L17.837 10.9023C18.2274 10.5115 18.4467 9.98164 18.4467 9.42923C18.4467 8.87681 18.2274 8.34699 17.837 7.95613V7.93528ZM10.3326 16.4264L8.8595 16.7947L9.22778 15.3216L13.7999 10.7495L14.9048 11.8543L10.3326 16.4264ZM16.8573 9.90173L15.8845 10.8676L14.7866 9.7697L15.7525 8.79691C15.8171 8.73178 15.8939 8.68008 15.9786 8.64481C16.0633 8.60953 16.1541 8.59137 16.2458 8.59137C16.3376 8.59137 16.4284 8.60953 16.5131 8.64481C16.5977 8.68008 16.6746 8.73178 16.7392 8.79691L16.8573 8.91503C16.9224 8.97963 16.9741 9.05648 17.0094 9.14115C17.0447 9.22583 17.0628 9.31665 17.0628 9.40838C17.0628 9.50011 17.0447 9.59093 17.0094 9.6756C16.9741 9.76028 16.9224 9.83713 16.8573 9.90173V9.90173Z" fill="white" fill-opacity="0.56"/>
<defs>
<linearGradient id="paint0_linear_158_131" x1="-22.9087" y1="-27.7844" x2="10.5664" y2="48.3381" gradientUnits="userSpaceOnUse">
<stop offset="0.397419" stop-color="white" stop-opacity="0.2"/>
<stop offset="1" stop-color="white" stop-opacity="0"/>
</linearGradient>
<radialGradient id="paint1_radial_158_131" cx="0" cy="0" r="1" gradientUnits="userSpaceOnUse" gradientTransform="translate(12.6825 25.0617) rotate(-90) scale(14.7962)">
<stop stop-color="white"/>
<stop offset="1" stop-color="white" stop-opacity="0"/>
</radialGradient>
</defs>
</svg>
