<svg width="97" height="109" viewBox="0 0 97 109" fill="none" xmlns="http://www.w3.org/2000/svg">
<g filter="url(#filter0_b_137_245)">
<path d="M38.2334 3.14104C44.5555 -0.640549 52.4445 -0.640546 58.7666 3.14104L86.831 19.9279C92.8684 23.5392 96.5644 30.0568 96.5644 37.0917V71.9083C96.5644 78.9432 92.8683 85.4608 86.831 89.0721L58.7666 105.859C52.4445 109.641 44.5555 109.641 38.2334 105.859L10.169 89.0721C4.13164 85.4608 0.435589 78.9432 0.435589 71.9083V37.0917C0.435589 30.0568 4.13165 23.5392 10.169 19.9279L38.2334 3.14104Z" fill="url(#paint0_linear_137_245)"/>
<path d="M38.2334 3.14104C44.5555 -0.640549 52.4445 -0.640546 58.7666 3.14104L86.831 19.9279C92.8684 23.5392 96.5644 30.0568 96.5644 37.0917V71.9083C96.5644 78.9432 92.8683 85.4608 86.831 89.0721L58.7666 105.859C52.4445 109.641 44.5555 109.641 38.2334 105.859L10.169 89.0721C4.13164 85.4608 0.435589 78.9432 0.435589 71.9083V37.0917C0.435589 30.0568 4.13165 23.5392 10.169 19.9279L38.2334 3.14104Z" fill="url(#paint1_radial_137_245)" fill-opacity="0.2"/>
<path d="M58.51 3.57014L86.5744 20.357C92.4608 23.878 96.0644 30.2327 96.0644 37.0917V71.9083C96.0644 78.7673 92.4607 85.122 86.5744 88.643L58.51 105.43C52.3459 109.117 44.6541 109.117 38.49 105.43L10.4256 88.643C4.53924 85.122 0.935589 78.7673 0.935589 71.9083V37.0917C0.935589 30.2327 4.53924 23.878 10.4256 20.357L38.49 3.57014C44.6541 -0.116914 52.3459 -0.116911 58.51 3.57014Z" stroke="#68CBDC"/>
</g>
<defs>
<filter id="filter0_b_137_245" x="-87.3948" y="-87.5254" width="271.79" height="284.051" filterUnits="userSpaceOnUse" color-interpolation-filters="sRGB">
<feFlood flood-opacity="0" result="BackgroundImageFix"/>
<feGaussianBlur in="BackgroundImage" stdDeviation="43.9152"/>
<feComposite in2="SourceAlpha" operator="in" result="effect1_backgroundBlur_137_245"/>
<feBlend mode="normal" in="SourceGraphic" in2="effect1_backgroundBlur_137_245" result="shape"/>
</filter>
<linearGradient id="paint0_linear_137_245" x1="-108.715" y1="-130.808" x2="48.9453" y2="215.241" gradientUnits="userSpaceOnUse">
<stop offset="0.397419" stop-color="white" stop-opacity="0.2"/>
<stop offset="1" stop-color="white" stop-opacity="0"/>
</linearGradient>
<radialGradient id="paint1_radial_137_245" cx="0" cy="0" r="1" gradientUnits="userSpaceOnUse" gradientTransform="translate(49.3102 112.284) rotate(-90) scale(68.0627 65.6953)">
<stop stop-color="white"/>
<stop offset="1" stop-color="white" stop-opacity="0"/>
</radialGradient>
</defs>
</svg>
